<svg width="448px" lenght="" height="192px" viewBox="0 0 448 192" version="1.1" xmlns="http://www.w3.org/2000/svg" xmlns:xlink="http://www.w3.org/1999/xlink">
        <path fill-opacity="0" stroke-width="1"   d="M28.2181037,45.0170372 C28.2181037,45.0170372 23.3431709,39.8011682 23.3431709,31.710274 C23.3431709,27.7942467 24.2498988,25.5289798 25.7545588,23.3735298 C28.1957307,19.8765113 31.2578349,17.1798376 31.2578349,17.1798376 C31.2578349,17.1798376 35.5325575,12.5381584 44.2880134,7.91257383 C53.0434694,3.28698921 60.6745201,2.3648017 60.6745201,2.3648017 C60.6745201,2.3648017 68.7402741,1.54499601 73.7400367,1.74620064 C78.7397993,1.94740528 88.2584281,4.47476981 88.2584281,4.47476981 L124.484127,13.5907445 C124.484127,13.5907445 132.322425,15.182101 136.042187,14.7731602 C139.761949,14.3642195 145.2043,11.3128238 145.2043,11.3128238 C145.2043,11.3128238 153.080419,2.82688169 157.976965,1.74620064 C160.134645,1.26999477 163.537959,0.910176497 166.391215,1.74620064 C169.244472,2.58222479 172.90094,5.20009925 172.90094,5.20009925 C172.90094,5.20009925 177.610947,8.87230238 178.962162,11.3128238 C180.313376,13.7533452 179.871381,20.3193269 179.871381,20.3193269 C179.871381,20.3193269 178.719453,27.7777088 176.417071,31.0984374 C174.114689,34.419166 168.037155,38.8828532 168.037155,38.8828532 C168.037155,38.8828532 156.200122,51.0600185 136.042187,51.0600185 C115.884252,51.0600185 96.7188166,44.5256158 96.7188166,44.5256158 C96.7188166,44.5256158 79.2438031,38.5882699 69.4234681,38.8828532 C59.6031332,39.1774365 53.4383232,45.8239126 53.4383232,45.8239126 C53.4383232,45.8239126 49.0359169,51.0600185 40.8255311,51.0600185 C32.6151452,51.0600185 28.2181037,45.0170372 28.2181037,45.0170372 Z" id="Path-3" stroke="#979797"></path>

    <path id="toothpaste-path" fill-opacity="0" stroke-width="2" stroke="#ED6A5A" d="M28.2181037,45.0170372 C28.2181037,45.0170372 23.3431709,39.8011682 23.3431709,31.710274 C23.3431709,27.7942467 24.2498988,25.5289798 25.7545588,23.3735298 C28.1957307,19.8765113 31.2578349,17.1798376 31.2578349,17.1798376 C31.2578349,17.1798376 35.5325575,12.5381584 44.2880134,7.91257383 C53.0434694,3.28698921 60.6745201,2.3648017 60.6745201,2.3648017 C60.6745201,2.3648017 68.7402741,1.54499601 73.7400367,1.74620064 C78.7397993,1.94740528 88.2584281,4.47476981 88.2584281,4.47476981 L124.484127,13.5907445 C124.484127,13.5907445 132.322425,15.182101 136.042187,14.7731602 C139.761949,14.3642195 145.2043,11.3128238 145.2043,11.3128238 C145.2043,11.3128238 153.080419,2.82688169 157.976965,1.74620064 C160.134645,1.26999477 163.537959,0.910176497 166.391215,1.74620064 C169.244472,2.58222479 172.90094,5.20009925 172.90094,5.20009925 C172.90094,5.20009925 177.610947,8.87230238 178.962162,11.3128238 C180.313376,13.7533452 179.871381,20.3193269 179.871381,20.3193269 C179.871381,20.3193269 178.719453,27.7777088 176.417071,31.0984374 C174.114689,34.419166 168.037155,38.8828532 168.037155,38.8828532 C168.037155,38.8828532 156.200122,51.0600185 136.042187,51.0600185 C115.884252,51.0600185 96.7188166,44.5256158 96.7188166,44.5256158 C96.7188166,44.5256158 79.2438031,38.5882699 69.4234681,38.8828532 C59.6031332,39.1774365 53.4383232,45.8239126 53.4383232,45.8239126 C53.4383232,45.8239126 49.0359169,51.0600185 40.8255311,51.0600185 C32.6151452,51.0600185 28.2181037,45.0170372 28.2181037,45.0170372 Z"
    />
    <path d="M144.874642,136.746507 L164.156622,136.746507 L164.156622,68.0867968 C164.156622,68.0867968 162.975689,60 154.515632,60 C146.055575,60 145.344112,68.0867968 145.344112,68.0867968 L144.874642,136.746507 Z" id="fibers4" stroke="#979797" fill-opacity="0"></path>

    <path id="fibers4-path" fill-opacity="0" stroke-width="2" stroke="#ED6A5A" d="M144.874642,136.746507 L164.156622,136.746507 L164.156622,68.0867968 C164.156622,68.0867968 162.975689,60 154.515632,60 C146.055575,60 145.344112,68.0867968 145.344112,68.0867968 L144.874642,136.746507 Z"
    />

        <path d="M110.937321,136.746507 L130.219301,136.746507 L130.219301,68.0867968 C130.219301,68.0867968 129.038368,60 120.578311,60 C112.118254,60 111.406791,68.0867968 111.406791,68.0867968 L110.937321,136.746507 Z" id="fibers3" stroke="#979797" fill-opacity="0"></path>


        <path d="M110.937321,136.746507 L130.219301,136.746507 L130.219301,68.0867968 C130.219301,68.0867968 129.038368,60 120.578311,60 C112.118254,60 111.406791,68.0867968 111.406791,68.0867968 L110.937321,136.746507 Z" id="fibers3-path" fill-opacity="0" stroke-width="2" stroke="#ED6A5A"></path>




        <path d="M77,136.746507 L96.2819793,136.746507 L96.2819793,68.0867968 C96.2819793,68.0867968 95.1010467,60 86.6409897,60 C78.1809326,60 77.4694695,68.0867968 77.4694695,68.0867968 L77,136.746507 Z" id="fibers2" stroke="#979797" fill-opacity="0"></path>


        <path d="M77,136.746507 L96.2819793,136.746507 L96.2819793,68.0867968 C96.2819793,68.0867968 95.1010467,60 86.6409897,60 C78.1809326,60 77.4694695,68.0867968 77.4694695,68.0867968 L77,136.746507 Z" id="fibers2-path" fill-opacity="0" stroke-width="2" stroke="#ED6A5A"></path>

        <path d="M43.0626788,136.30876 L62.3446581,136.30876 L62.3446581,67.6490497 C62.3446581,67.6490497 61.1637255,59.5622529 52.7036685,59.5622529 C44.2436114,59.5622529 43.5321483,67.6490497 43.5321483,67.6490497 L43.0626788,136.30876 Z" id="fibers1" stroke="#979797" fill-opacity="0"></path>

        <path d="M43.0626788,136.30876 L62.3446581,136.30876 L62.3446581,67.6490497 C62.3446581,67.6490497 61.1637255,59.5622529 52.7036685,59.5622529 C44.2436114,59.5622529 43.5321483,67.6490497 43.5321483,67.6490497 L43.0626788,136.30876 Z" id="fibers1-path" fill-opacity="0" stroke-width="2" stroke="#ED6A5A"></path>

        <path d="M21.1761844,190.567717 C21.1761844,190.567717 1.0899594,190.567717 1.13529119,168.585091 C1.18062298,146.602465 21.444554,146.602465 21.444554,146.602465 L431.836549,146.602465 C431.836549,146.602465 446.520101,152.544448 446.520101,168.585091 C446.520101,184.625735 428.584861,190.467411 428.584861,190.467411 L21.1761844,190.567717 Z" id="handle" stroke="#979797" fill-opacity="0"></path>

         <path d="M21.1761844,190.567717 C21.1761844,190.567717 1.0899594,190.567717 1.13529119,168.585091 C1.18062298,146.602465 21.444554,146.602465 21.444554,146.602465 L431.836549,146.602465 C431.836549,146.602465 446.520101,152.544448 446.520101,168.585091 C446.520101,184.625735 428.584861,190.467411 428.584861,190.467411 L21.1761844,190.567717 Z" id="handle-path" fill-opacity="0" stroke-width="2" stroke="#ED6A5A"></path>


  </svg>